<svg xmlns="http://www.w3.org/2000/svg" viewBox="0 0 64 64" role="img" aria-labelledby="title desc">
  <title id="title">CityReach Church Favicon</title>
  <desc id="desc">Stylized monogram with cross for CityReach Church</desc>
  <defs>
    <linearGradient id="cr-gradient" x1="0" y1="0" x2="1" y2="1">
      <stop offset="0%" stop-color="#433f3a" />
      <stop offset="100%" stop-color="#b91c1c" />
    </linearGradient>
    <filter id="shadow" x="-20%" y="-20%" width="140%" height="140%" color-interpolation-filters="sRGB">
      <feDropShadow dx="0" dy="2" stdDeviation="2" flood-color="rgba(0,0,0,0.18)" />
    </filter>
  </defs>
  <rect x="4" y="4" width="56" height="56" rx="14" fill="url(#cr-gradient)" filter="url(#shadow)" />
  <path fill="#f8fafc" d="M30.25 16c-.83 0-1.5.67-1.5 1.5V26h-6.75c-.83 0-1.5.67-1.5 1.5s.67 1.5 1.5 1.5H28.75v17c0 1.38 1.12 2.5 2.5 2.5s2.5-1.12 2.5-2.5V29h6.25c.83 0 1.5-.67 1.5-1.5s-.67-1.5-1.5-1.5H33.75v-8.5c0-.83-.67-1.5-1.5-1.5h-1.99Z"/>
  <path fill="#f1f5f9" d="M21.5 44.5c0-6.65 5.35-12 12-12s12 5.35 12 12v3.5h-24v-3.5Z" opacity="0.65" />
</svg>
